<svg xmlns="http://www.w3.org/2000/svg" viewBox="0 0 32 32" fill="none">
  <rect width="32" height="32" rx="6" fill="#0A192F"/>
  <path d="M24.58 20.09l-1.09-7.66C23.21 10.46 21.52 9 19.53 9H12.47C10.48 9 8.79 10.46 8.51 12.43l-1.09 7.66C7.2 21.63 8.39 23 9.94 23c.68 0 1.32-.27 1.8-.75L14 20h4l2.25 2.25c.48.48 1.13.75 1.8.75 1.56 0 2.75-1.37 2.53-2.91zM16 15h-2v2h-1v-2h-2v-1h2v-2h1v2h2v1zm4 2c-.55 0-1-.45-1-1s.45-1 1-1 1 .45 1 1-.45 1-1 1zm2-3c-.55 0-1-.45-1-1s.45-1 1-1 1 .45 1 1-.45 1-1 1z" fill="#64FFDA"/>
</svg>
